<svg width="14" height="15" viewBox="0 0 14 15" fill="none" xmlns="http://www.w3.org/2000/svg">
<path d="M7 1.84375C10.2266 1.84375 12.9062 4.49609 12.9062 7.75C12.9062 11.0312 10.2539 13.6562 7 13.6562C3.71875 13.6562 1.09375 11.0312 1.09375 7.75C1.09375 4.49609 3.71875 1.84375 7 1.84375ZM7 0.96875C3.25391 0.96875 0.21875 4.03125 0.21875 7.75C0.21875 11.4961 3.25391 14.5312 7 14.5312C10.7188 14.5312 13.7812 11.4961 13.7812 7.75C13.7812 4.03125 10.7188 0.96875 7 0.96875ZM6.67188 4.25C6.48047 4.25 6.34375 4.41406 6.34375 4.60547L6.53516 9.19922C6.53516 9.36328 6.69922 9.5 6.86328 9.5H7.10938C7.27344 9.5 7.4375 9.36328 7.4375 9.19922L7.62891 4.60547C7.62891 4.41406 7.49219 4.25 7.30078 4.25H6.67188ZM7 10.0469C6.5625 10.0469 6.23438 10.4023 6.23438 10.8125C6.23438 11.25 6.5625 11.5781 7 11.5781C7.41016 11.5781 7.76562 11.25 7.76562 10.8125C7.76562 10.4023 7.41016 10.0469 7 10.0469Z" fill="#EC5050"/>
</svg>
