<svg width="20" height="14" viewBox="0 0 20 14" fill="none" xmlns="http://www.w3.org/2000/svg">
<path d="M15 7C16.6562 7 18 5.65625 18 4C18 2.34375 16.6562 1 15 1C13.3438 1 12 2.34375 12 4C12 5.65625 13.3438 7 15 7ZM15 2C16.0938 2 17 2.90625 17 4C17 5.125 16.0938 6 15 6C13.875 6 13 5.125 13 4C13 2.90625 13.875 2 15 2ZM6 7C7.90625 7 9.5 5.4375 9.5 3.5C9.5 1.59375 7.90625 0 6 0C4.0625 0 2.5 1.59375 2.5 3.5C2.5 5.4375 4.0625 7 6 7ZM6 1C7.375 1 8.5 2.125 8.5 3.5C8.5 4.90625 7.375 6 6 6C4.59375 6 3.5 4.90625 3.5 3.5C3.5 2.125 4.59375 1 6 1ZM8.5 7.625C7.4375 7.625 7.1875 8 6 8C4.78125 8 4.53125 7.625 3.46875 7.625C2.34375 7.625 1.25 8.15625 0.59375 9.09375C0.21875 9.6875 0 10.375 0 11.125V12.5C0 13.3438 0.65625 14 1.5 14H10.5C11.3125 14 12 13.3438 12 12.5V11.125C12 10.375 11.75 9.6875 11.375 9.09375C10.7188 8.15625 9.625 7.625 8.5 7.625ZM11 12.5C11 12.7812 10.75 13 10.5 13H1.5C1.21875 13 1 12.7812 1 12.5V11.125C1 10.5938 1.125 10.0938 1.4375 9.65625C1.84375 9.03125 2.625 8.625 3.46875 8.625C4.34375 8.625 4.65625 9 6 9C7.34375 9 7.625 8.625 8.5 8.625C9.34375 8.625 10.125 9.03125 10.5312 9.65625C10.8438 10.0938 10.9688 10.5938 10.9688 11.125V12.5H11ZM19.4688 8.9375C18.9375 8.125 18.0312 7.6875 17.0625 7.6875C16.2188 7.6875 16 8 15 8C14 8 13.7812 7.6875 12.9062 7.6875C12.5 7.6875 12.0938 7.78125 11.7188 7.96875C12.1875 8.4375 12.2812 8.6875 12.3438 8.78125C12.5312 8.75 12.6875 8.71875 12.9062 8.71875C13.5938 8.71875 13.8438 9.03125 15 9.03125C16.125 9.03125 16.4062 8.71875 17.0625 8.71875C17.7188 8.71875 18.3125 9 18.6562 9.5C18.875 9.8125 19 10.1875 19 10.5938V11.75C19 11.9062 18.875 12 18.75 12H13C13 12.5625 13 12.7188 12.9375 13H18.75C19.4375 13 20 12.4688 20 11.75V10.5938C20 9.96875 19.8125 9.40625 19.4688 8.9375Z" fill="#243B43"/>
</svg>
