<svg width="15" height="17" viewBox="0 0 15 17" fill="none" xmlns="http://www.w3.org/2000/svg">
<path d="M12.7256 7.85815H12.2256V5.92065C12.2256 3.17065 9.97559 0.889404 7.22559 0.858154C4.47559 0.858154 2.22559 3.10815 2.22559 5.85815V7.85815H1.72559C0.881836 7.85815 0.225586 8.54565 0.225586 9.35815V15.3582C0.225586 16.2019 0.881836 16.8582 1.72559 16.8582H12.7256C13.5381 16.8582 14.2256 16.2019 14.2256 15.3582V9.35815C14.2256 8.54565 13.5381 7.85815 12.7256 7.85815ZM3.22559 5.85815C3.22559 3.67065 5.00684 1.85815 7.22559 1.85815C9.41309 1.85815 11.2256 3.67065 11.2256 5.85815V7.85815H3.22559V5.85815ZM12.7256 15.8582H1.72559C1.44434 15.8582 1.22559 15.6394 1.22559 15.3582V9.35815C1.22559 9.10815 1.44434 8.85815 1.72559 8.85815H12.7256C12.9756 8.85815 13.2256 9.10815 13.2256 9.35815V15.3582C13.2256 15.6394 12.9756 15.8582 12.7256 15.8582Z" fill="#868888"/>
</svg>
