<svg width="17" height="16" viewBox="0 0 17 16" fill="none" xmlns="http://www.w3.org/2000/svg">
<path d="M16.4302 7.85815C16.4302 3.60815 12.9302 0.108154 8.68018 0.108154C4.39893 0.108154 0.930176 3.60815 0.930176 7.85815C0.930176 12.1394 4.39893 15.6082 8.68018 15.6082C12.9302 15.6082 16.4302 12.1394 16.4302 7.85815ZM7.77393 11.9832C7.58643 12.1707 7.24268 12.1707 7.05518 11.9832L3.80518 8.73315C3.61768 8.54565 3.61768 8.2019 3.80518 8.0144L4.52393 7.3269C4.71143 7.10815 5.02393 7.10815 5.21143 7.3269L7.43018 9.5144L12.1177 4.8269C12.3052 4.60815 12.6177 4.60815 12.8052 4.8269L13.5239 5.5144C13.7114 5.7019 13.7114 6.04565 13.5239 6.23315L7.77393 11.9832Z" fill="#06A917"/>
</svg>
