<svg width="21" height="17" viewBox="0 0 21 17" fill="none" xmlns="http://www.w3.org/2000/svg">
<path d="M20.4927 15.5769L1.80518 0.983154C1.71143 0.920654 1.58643 0.889404 1.49268 0.889404C1.30518 0.889404 1.18018 0.951904 1.08643 1.04565L0.773926 1.4519C0.711426 1.54565 0.648926 1.6394 0.648926 1.7644C0.648926 1.92065 0.742676 2.0769 0.867676 2.1394L19.5552 16.7644C19.6177 16.8269 19.7427 16.8582 19.8364 16.8582C20.0239 16.8582 20.1489 16.7957 20.2427 16.6707L20.5552 16.2957C20.6177 16.2019 20.6802 16.1082 20.6802 15.9832C20.6802 15.8269 20.5864 15.6707 20.4927 15.5769ZM9.93018 5.4519L14.1489 8.73315C14.0864 6.85815 12.5552 5.35815 10.6802 5.35815C10.4302 5.3894 10.1802 5.3894 9.93018 5.4519ZM11.3989 12.2957L7.18018 9.0144C7.24268 10.8894 8.77393 12.3582 10.6802 12.3582C10.8989 12.3582 11.1489 12.3582 11.3989 12.2957ZM10.6802 4.35815C13.7427 4.35815 16.5864 6.0769 18.0864 8.85815C17.7114 9.5769 17.2739 10.2019 16.7114 10.7644L17.8989 11.6707C18.5552 10.9832 19.1177 10.2019 19.5552 9.3269C19.6177 9.2019 19.6802 9.04565 19.6802 8.8894C19.6802 8.7019 19.6177 8.54565 19.5552 8.42065C17.8677 5.10815 14.4927 2.85815 10.6802 2.85815C9.52393 2.85815 8.43018 3.0769 7.39893 3.4519L8.83643 4.60815C9.43018 4.4519 10.0552 4.35815 10.6802 4.35815ZM10.6802 13.3582C7.58643 13.3582 4.74268 11.6394 3.24268 8.85815C3.61768 8.17065 4.05518 7.54565 4.61768 6.98315L3.43018 6.0769C2.77393 6.7644 2.21143 7.54565 1.77393 8.42065C1.71143 8.54565 1.68018 8.7019 1.68018 8.85815C1.68018 9.04565 1.71143 9.2019 1.77393 9.3269C3.46143 12.6394 6.83643 14.8582 10.6802 14.8582C11.8052 14.8582 12.8989 14.6394 13.9302 14.2957L12.4927 13.1394C11.8989 13.2957 11.2739 13.3582 10.6802 13.3582Z" fill="#868888"/>
</svg>
