<svg width="108" height="30" viewBox="0 0 108 30" fill="none" xmlns="http://www.w3.org/2000/svg">
<g clip-path="url(#clip0)">
<path d="M15.4018 11.2606C15.0221 10.4602 14.474 9.74963 13.7944 9.17659C13.0558 8.5662 12.1947 8.11848 11.2684 7.8631C10.2985 7.58266 9.29328 7.44112 8.28307 7.44279C6.7744 7.41818 5.27876 7.72311 3.90231 8.33596C2.6911 8.8551 1.66389 9.72107 0.952356 10.8228C0.289593 11.9416 -0.046751 13.2209 -0.0191837 14.5181C-0.0247586 15.3983 0.137042 16.2717 0.457752 17.0925C0.802387 17.9139 1.34167 18.6408 2.02988 19.2116C2.79429 19.8585 3.69284 20.3309 4.66188 20.5952C5.68548 20.878 6.74354 21.0194 7.80613 21.0155C8.88615 21.0194 9.96171 20.878 11.0034 20.5952C11.9762 20.327 12.8797 19.8552 13.653 19.2116C14.4147 18.5944 15.0198 17.8086 15.4195 16.9174C15.8154 15.9806 16.0138 14.9733 16.0024 13.9577C15.9941 13.027 15.7895 12.1083 15.4018 11.2606ZM11.2507 16.0943C10.9536 16.7115 10.4808 17.229 9.89053 17.5829C9.29206 17.9364 8.60875 18.1239 7.91212 18.1258C7.23819 18.1314 6.57447 17.9624 5.9867 17.6354C5.41418 17.3441 4.94559 16.8857 4.64421 16.3219C4.34521 15.7486 4.19352 15.1109 4.2026 14.4656C4.19846 13.7438 4.36164 13.0308 4.67954 12.3815C4.99789 11.763 5.48037 11.2422 6.07502 10.8754C6.68964 10.5143 7.39206 10.3266 8.10643 10.3325C8.77043 10.3165 9.42551 10.4865 9.99652 10.8228C10.5567 11.1292 11.0073 11.6004 11.286 12.1713C11.5852 12.7572 11.7367 13.4062 11.7276 14.0628C11.7274 14.7672 11.5643 15.4622 11.2507 16.0943Z" fill="black"/>
<path d="M33.6145 13.2571C33.6145 16.2869 33.4731 18.3884 33.4731 19.5268C33.4731 19.7545 33.4731 20.1923 33.4731 20.8053H29.8696C29.8696 20.2273 29.9756 18.8613 30.0639 16.6897C30.1522 14.518 30.1876 13.187 30.1876 12.5391C30.1876 12.2764 30.1876 11.9086 30.1876 11.4357L28.8804 15.3412L27.114 20.7877H23.5811L22.3799 15.5338L21.6733 12.7142C21.6733 12.6091 21.6733 12.469 21.6733 12.3114C21.6733 12.1538 21.6733 11.8736 21.5144 11.4532L21.2671 14.1152L20.9491 19.5793V20.8053H17.2749L17.5045 18.8438L18.1051 12.1187L18.4054 7.67041H21.2317H23.8107C23.8107 8.23083 23.9697 8.65115 24.0404 8.93136C24.111 9.21157 24.2347 9.77199 24.4643 10.6827C24.6939 11.5934 24.8706 12.2413 25.0119 12.8368C25.1532 13.4322 25.3652 14.483 25.6478 15.9541C25.9305 14.9384 26.1778 14.0802 26.4251 13.3622C26.6724 12.6441 26.9373 11.8035 27.2906 10.8928C27.6439 9.98214 27.8735 9.36918 27.9619 9.14151C28.0502 8.91384 28.1915 8.42348 28.3505 7.82803H31.2121H33.8441C33.7204 9.85955 33.6498 11.7159 33.6145 13.2571Z" fill="black"/>
<path d="M50.1479 10.56L49.7063 18.511V20.8052H44.7602L44.0183 19.4392L42.3932 16.7071C41.8456 15.814 41.351 14.9558 40.8917 14.1327C40.6091 13.6073 40.2911 13.0469 39.9732 12.3814L39.8142 16.9698L39.7259 20.8052H35.8397L36.034 18.8437L36.405 11.9961L36.511 9.24654V7.68787H39.1783H41.5806L45.7318 15.1485L46.297 16.2518C46.297 15.166 46.456 13.6598 46.5267 11.7159C46.5973 9.77193 46.6327 8.44093 46.6327 7.68787H48.5581H50.4482L50.1479 10.56Z" fill="black"/>
<path d="M56.8426 11.8385C56.7543 13.5898 56.6836 15.3411 56.6483 16.8647C56.613 18.3884 56.6483 19.7544 56.6483 20.8577H52.1792C52.556 15.7322 52.7445 11.7743 52.7445 8.98384V7.68787H55.0055H57.1076C56.9839 9.14146 56.8956 10.5075 56.8249 11.7859L56.8426 11.8385Z" fill="black"/>
<path d="M95.9353 19.4042L93.056 11.6984L91.6429 7.68787H89.0992H86.6085C86.3259 8.2658 86.1139 8.72114 85.955 9.01886L85.425 10.0697L80.4437 19.4217L79.6311 20.8052H84.2415C84.8421 19.4625 85.4309 18.2191 86.0079 17.0749H90.901C91.4309 18.511 91.8372 19.7544 92.1375 20.8052H96.5713L95.9353 19.4042ZM87.1031 14.2903L87.8097 12.8718C88.11 12.2588 88.4633 11.4882 88.8872 10.56C88.8872 10.7877 89.3818 12.0311 90.1237 14.2903H87.1031Z" fill="black"/>
<path d="M108 17.9154L107.788 20.8051H97.4369C97.5959 19.2989 97.7019 18.073 97.7902 17.1098C97.9138 15.3585 98.0198 13.6072 98.0905 11.8559C98.1611 10.1045 98.1965 8.721 98.1965 7.61768H100.528H102.507L102.277 11.1203L101.994 16.5494V17.8979H104.185C105.88 17.8979 107.17 17.8979 108.053 17.8979L108 17.9154Z" fill="black"/>
<path d="M80.779 25.6223C80.6471 25.4651 80.4674 25.3545 80.2667 25.3071C80.4268 25.2287 80.5614 25.1073 80.6554 24.9568C80.7411 24.827 80.7843 24.6741 80.779 24.519C80.7818 24.3508 80.7324 24.1857 80.6377 24.0461C80.5475 23.8861 80.4038 23.7622 80.2314 23.6959C80.0166 23.6181 79.7887 23.5824 79.5602 23.5908H78.1647V27.251H79.5778C79.7774 27.2735 79.9789 27.2735 80.1784 27.251C80.3234 27.2174 80.461 27.1581 80.5847 27.0759C80.6999 26.9818 80.7908 26.8617 80.8497 26.7256C80.9216 26.5784 80.9579 26.4164 80.9556 26.2528C80.9793 26.028 80.9162 25.8028 80.779 25.6223ZM78.6769 24.0987H79.4188C79.6065 24.0754 79.7964 24.0754 79.9841 24.0987C80.0868 24.132 80.1744 24.2003 80.2314 24.2913C80.2876 24.3935 80.3179 24.5077 80.3197 24.6241C80.3196 24.7351 80.2891 24.8441 80.2314 24.9393C80.1595 25.0273 80.06 25.0889 79.9488 25.1144C79.7908 25.139 79.6299 25.139 79.4718 25.1144H78.6769V24.0987ZM80.4434 26.568C80.3975 26.6486 80.3303 26.7152 80.2491 26.7607C80.1641 26.8165 80.0675 26.8525 79.9664 26.8658H78.6769V25.6048H79.5248C79.7057 25.5707 79.8915 25.5707 80.0724 25.6048C80.1485 25.6165 80.2211 25.6445 80.2852 25.6868C80.3492 25.7292 80.4032 25.7849 80.4434 25.85C80.5149 25.9528 80.552 26.0754 80.5494 26.2003C80.5333 26.3052 80.4974 26.4063 80.4434 26.498V26.568Z" fill="black"/>
<path d="M82.7589 27.2855C82.6888 27.4888 82.6062 27.6877 82.5116 27.881C82.4458 28.0129 82.3489 28.1271 82.2289 28.2137C82.1188 28.285 81.9895 28.3216 81.858 28.3188H81.5577V27.8985H81.8226C81.9038 27.9185 81.9887 27.9185 82.0699 27.8985C82.1297 27.8663 82.1787 27.8176 82.2113 27.7584C82.2698 27.6526 82.3172 27.5411 82.3526 27.4256V27.3206L81.3457 24.6586H81.8226L82.3879 26.1997C82.4632 26.4006 82.528 26.6052 82.5822 26.8127C82.6283 26.6087 82.6933 26.4093 82.7765 26.2172L83.3418 24.6586H83.801L82.7765 27.3556L82.7589 27.2855Z" fill="black"/>
<path d="M87.2078 27.2498H86.7132L85.2823 23.5896H85.7416L86.6955 26.2516C86.7736 26.4456 86.8385 26.6445 86.8898 26.847C86.9422 26.6426 87.0132 26.4433 87.1018 26.2516L88.091 23.5896H88.5856L87.1371 27.2498H87.2078Z" fill="black"/>
<path d="M91.2362 26.9176C91.2226 26.6551 91.2226 26.3921 91.2362 26.1295V25.5341C91.2498 25.3943 91.2498 25.2536 91.2362 25.1138C91.2182 25.0034 91.1692 24.9002 91.0949 24.8161C91.0184 24.7213 90.9131 24.6537 90.7946 24.6234C90.6128 24.5617 90.4214 24.532 90.2293 24.5358C90.0258 24.5353 89.8234 24.5648 89.6287 24.6234C89.4691 24.6765 89.3281 24.7737 89.2224 24.9036C89.1202 25.0368 89.0534 25.1934 89.0281 25.359H89.4697C89.4962 25.207 89.5779 25.0699 89.6994 24.9737C89.8315 24.8771 89.9955 24.8333 90.1586 24.8511C90.3486 24.839 90.5367 24.8949 90.6886 25.0087C90.7767 25.1174 90.8208 25.2548 90.8122 25.394V25.5166C90.5465 25.5887 90.2744 25.6356 89.9997 25.6567H89.5934C89.4779 25.6878 89.3698 25.7414 89.2754 25.8143C89.1726 25.8729 89.0873 25.9575 89.0281 26.0595C89.0019 26.1807 89.0019 26.3061 89.0281 26.4273C89.0278 26.53 89.0496 26.6317 89.0923 26.7253C89.135 26.819 89.1974 26.9025 89.2754 26.9702C89.464 27.1225 89.7041 27.1977 89.9467 27.1803C90.1103 27.2084 90.2776 27.2084 90.4413 27.1803C90.6215 27.1087 90.7886 27.0081 90.9359 26.8826C90.9177 26.9928 90.9177 27.1052 90.9359 27.2154H91.4128C91.3383 27.1261 91.2787 27.0256 91.2362 26.9176ZM90.7592 26.077C90.7834 26.2278 90.7834 26.3815 90.7592 26.5323C90.6875 26.6562 90.5839 26.759 90.4589 26.8301C90.3149 26.915 90.1495 26.9575 89.982 26.9527C89.8358 26.9639 89.6908 26.9201 89.5757 26.8301C89.5337 26.793 89.5007 26.7469 89.4793 26.6953C89.4579 26.6438 89.4485 26.588 89.4521 26.5323C89.4362 26.4632 89.4362 26.3914 89.4521 26.3222C89.4928 26.2566 89.5552 26.2071 89.6287 26.1821L90.035 26.077C90.2881 26.0563 90.5375 26.0034 90.7769 25.9194L90.7592 26.077Z" fill="black"/>
<path d="M91.9065 27.2498V23.5896H92.3658V27.2498H91.9065Z" fill="black"/>
<path d="M94.8211 27.2502V26.8474C94.7307 26.9887 94.6054 27.1047 94.457 27.1844C94.3085 27.2642 94.142 27.3049 93.9733 27.3028C93.8272 27.329 93.6777 27.329 93.5316 27.3028C93.4125 27.2553 93.3087 27.1766 93.2314 27.0751C93.1534 26.9797 93.1044 26.8643 93.09 26.7423C93.0764 26.6026 93.0764 26.4618 93.09 26.322V24.6758H93.5493V26.1469C93.5362 26.3042 93.5362 26.4624 93.5493 26.6197C93.5751 26.7345 93.6448 26.8349 93.7436 26.9C93.8395 26.9732 93.9584 27.0104 94.0792 27.005C94.216 27.0053 94.3502 26.969 94.4679 26.9C94.5769 26.8334 94.6631 26.7357 94.7152 26.6197C94.7486 26.4462 94.7486 26.2679 94.7152 26.0943V24.6758H95.1744V27.2502H94.8211Z" fill="black"/>
<path d="M98.2676 25.8495C98.279 25.6655 98.2537 25.481 98.1931 25.3067C98.1325 25.1324 98.0377 24.9717 97.9143 24.8337C97.8052 24.7143 97.6714 24.6197 97.522 24.5562C97.3727 24.4928 97.2112 24.462 97.0488 24.4659C96.8784 24.4612 96.7088 24.4914 96.5507 24.5547C96.3927 24.6179 96.2495 24.713 96.1302 24.8337C95.8896 25.1231 95.7695 25.4927 95.7946 25.867C95.7686 26.236 95.8891 26.6005 96.1302 26.8828C96.2543 27.0009 96.4012 27.0928 96.5621 27.153C96.7231 27.2132 96.8946 27.2404 97.0664 27.233C97.3389 27.249 97.6082 27.1683 97.826 27.0054C98.038 26.8514 98.1882 26.6281 98.25 26.3749H97.773C97.7245 26.5404 97.6258 26.6871 97.4904 26.7952C97.3381 26.8919 97.157 26.9342 96.9772 26.9151C96.7973 26.8959 96.6294 26.8166 96.5012 26.6901C96.3459 26.502 96.2589 26.2676 96.2539 26.0246H98.25C98.2505 25.9658 98.2565 25.9072 98.2676 25.8495ZM96.3422 25.6568C96.3469 25.4536 96.429 25.2597 96.5719 25.1139C96.6414 25.0385 96.726 24.9783 96.8202 24.9371C96.9145 24.8959 97.0164 24.8747 97.1194 24.8747C97.2225 24.8747 97.3244 24.8959 97.4187 24.9371C97.5129 24.9783 97.5975 25.0385 97.667 25.1139C97.7665 25.2588 97.8217 25.4291 97.826 25.6043L96.3422 25.6568Z" fill="black"/>
<path d="M98.8516 27.2498V23.5896H99.3462V26.812H101.166V27.2498H98.8516Z" fill="black"/>
<path d="M101.694 27.25V24.6055H102.153V27.25H101.694Z" fill="black"/>
<path d="M101.694 23.5896H102.153V24.115H101.694V23.5896Z" fill="black"/>
<path d="M104.555 27.2499V25.6387C104.58 25.4996 104.58 25.3574 104.555 25.2184C104.523 25.13 104.461 25.0557 104.379 25.0082C104.281 24.9552 104.172 24.9252 104.061 24.9207C103.872 24.9211 103.69 24.9896 103.549 25.1133C103.467 25.206 103.406 25.3147 103.369 25.4324C103.333 25.5501 103.322 25.6741 103.337 25.7963V27.2499H102.895V24.5879H103.301V24.9732C103.39 24.8314 103.515 24.7159 103.665 24.6389C103.814 24.5619 103.981 24.5261 104.149 24.5354C104.301 24.5358 104.451 24.5656 104.591 24.6229C104.717 24.6581 104.824 24.7395 104.891 24.8506C104.969 24.946 105.018 25.0614 105.032 25.1834C105.048 25.3289 105.048 25.4756 105.032 25.6212V27.2499H104.555Z" fill="black"/>
<path d="M107.929 27.2498H107.381L106.498 25.9013L106.162 26.1991V27.2498H105.721V23.5896H106.162V25.6737L107.24 24.6054H107.841L106.816 25.5861L107.929 27.2498Z" fill="black"/>
<path d="M88.6749 0H76.5748L82.6337 10L88.6749 0Z" fill="#E84DB3"/>
<path d="M82.6334 10H70.5333L76.5745 20L82.6334 10Z" fill="#993EB2"/>
<path d="M70.534 10H58.434L64.4752 20L70.534 10Z" fill="#65DAFB"/>
<path d="M82.6334 10H70.5333L76.5745 0L82.6334 10Z" fill="#EB4686"/>
<path d="M76.5752 19.9999H64.4751L70.534 29.9999L76.5752 19.9999Z" fill="#035EDE"/>
<path d="M76.5752 20H64.4751L70.534 10L76.5752 20Z" fill="#1D8CFB"/>
</g>
<defs>
<clipPath id="clip0">
<rect width="108" height="30" fill="white"/>
</clipPath>
</defs>
</svg>
