<svg width="12" height="16" viewBox="0 0 12 16" fill="none" xmlns="http://www.w3.org/2000/svg">
<path d="M4.25 10H3.75C3.59375 10 3.5 10.125 3.5 10.25V13.25C3.5 13.4062 3.59375 13.5 3.75 13.5H4.25C4.375 13.5 4.5 13.4062 4.5 13.25V10.25C4.5 10.125 4.375 10 4.25 10ZM6.25 7H5.75C5.59375 7 5.5 7.125 5.5 7.25V13.25C5.5 13.4062 5.59375 13.5 5.75 13.5H6.25C6.375 13.5 6.5 13.4062 6.5 13.25V7.25C6.5 7.125 6.375 7 6.25 7ZM7.5 9.25V13.25C7.5 13.4062 7.59375 13.5 7.75 13.5H8.25C8.375 13.5 8.5 13.4062 8.5 13.25V9.25C8.5 9.125 8.375 9 8.25 9H7.75C7.59375 9 7.5 9.125 7.5 9.25ZM11.5312 3.0625L8.9375 0.46875C8.65625 0.1875 8.25 0 7.875 0H1.46875C0.65625 0.03125 0 0.6875 0 1.53125V14.5312C0 15.3438 0.65625 16 1.46875 16H10.5C11.3125 16 12 15.3438 12 14.5312V4.125C12 3.75 11.8125 3.34375 11.5312 3.0625ZM8 1.03125C8.0625 1.0625 8.15625 1.09375 8.21875 1.15625L10.8438 3.78125C10.9062 3.84375 10.9375 3.9375 10.9688 4.03125H8V1.03125ZM11 14.5312C11 14.7812 10.75 15.0312 10.5 15.0312H1.46875C1.21875 15.0312 0.96875 14.7812 0.96875 14.5312V1.53125C0.96875 1.25 1.21875 1 1.46875 1H7V4.28125C7 4.6875 7.3125 5 7.75 5H11V14.5312Z" fill="#243B43"/>
</svg>
