<svg width="15" height="17" viewBox="0 0 15 17" fill="none" xmlns="http://www.w3.org/2000/svg">
<path d="M10.0068 9.85815C9.10059 9.85815 8.69434 10.3582 7.22559 10.3582C5.72559 10.3582 5.31934 9.85815 4.41309 9.85815C2.10059 9.85815 0.225586 11.7644 0.225586 14.0769V15.3582C0.225586 16.2019 0.881836 16.8582 1.72559 16.8582H12.7256C13.5381 16.8582 14.2256 16.2019 14.2256 15.3582V14.0769C14.2256 11.7644 12.3193 9.85815 10.0068 9.85815ZM13.2256 15.3582C13.2256 15.6394 12.9756 15.8582 12.7256 15.8582H1.72559C1.44434 15.8582 1.22559 15.6394 1.22559 15.3582V14.0769C1.22559 12.2957 2.63184 10.8582 4.41309 10.8582C5.03809 10.8582 5.63184 11.3582 7.22559 11.3582C8.78809 11.3582 9.41309 10.8582 10.0068 10.8582C11.7881 10.8582 13.2256 12.2957 13.2256 14.0769V15.3582ZM7.22559 8.85815C9.41309 8.85815 11.2256 7.0769 11.2256 4.85815C11.2256 2.67065 9.41309 0.858154 7.22559 0.858154C5.00684 0.858154 3.22559 2.67065 3.22559 4.85815C3.22559 7.0769 5.00684 8.85815 7.22559 8.85815ZM7.22559 1.85815C8.85059 1.85815 10.2256 3.23315 10.2256 4.85815C10.2256 6.5144 8.85059 7.85815 7.22559 7.85815C5.56934 7.85815 4.22559 6.5144 4.22559 4.85815C4.22559 3.23315 5.56934 1.85815 7.22559 1.85815Z" fill="#243B43"/>
</svg>
